# xmcd
#
# Track frame offsets:
#	150
#	19719
#	35523
#	48137
#	61438
#	75387
#	90804
#	103904
#	114938
#	134206
#	146840
#	158835
#	176234
#
# Disc length: 2602 seconds
#
# Revision: 2
# Processed by: cddbd v1.5.2PL0 Copyright (c) Steve Scherf et al.
# Submitted via: audiograbber 1.83.01
#
DISCID=a90a280d
DTITLE=The Dennis Whitty Band - Country With A Kick
DYEAR=2004
DGENRE=Country
TTITLE0=Gone Country
TTITLE1=Fast as You
TTITLE2=Next Broken Heart
TTITLE3=Small Town Saturday Night
TTITLE4=Watermelon Crawl
TTITLE5=Suspicious Minds
TTITLE6=Third Rock From the Sun
TTITLE7=Chattahoochie
TTITLE8=Don't Close Your Eyes
TTITLE9=Hard Workin' Man
TTITLE10=A Little Less Talk
TTITLE11=Kick a Little
TTITLE12=Raise a Little Hell
EXTD=
EXTT0=
EXTT1=
EXTT2=
EXTT3=
EXTT4=
EXTT5=
EXTT6=
EXTT7=
EXTT8=
EXTT9=
EXTT10=
EXTT11=
EXTT12=
PLAYORDER=
